<svg width="18" height="16" viewBox="0 0 18 16" fill="none" xmlns="http://www.w3.org/2000/svg">
<path d="M3.00012 2C3.26534 2 3.51969 1.89464 3.70723 1.70711C3.89477 1.51957 4.00012 1.26522 4.00012 1C4.00012 0.734784 3.89477 0.48043 3.70723 0.292893C3.51969 0.105357 3.26534 0 3.00012 0H1.00012C0.734906 0 0.480552 0.105357 0.293015 0.292893C0.105479 0.48043 0.00012207 0.734784 0.00012207 1V15C0.00012207 15.2652 0.105479 15.5196 0.293015 15.7071C0.480552 15.8946 0.734906 16 1.00012 16H3.00012C3.26534 16 3.51969 15.8946 3.70723 15.7071C3.89477 15.5196 4.00012 15.2652 4.00012 15C4.00012 14.7348 3.89477 14.4804 3.70723 14.2929C3.51969 14.1054 3.26534 14 3.00012 14H2.00012V2H3.00012Z" fill="#9732E7"/>
<path d="M16.8201 7.42001L14.0001 3.42001C13.8472 3.20442 13.6151 3.05815 13.3546 3.01318C13.0942 2.96821 12.8265 3.02819 12.6101 3.18001C12.502 3.2558 12.4099 3.35226 12.3392 3.46382C12.2686 3.57538 12.2207 3.69983 12.1984 3.83C12.1761 3.96016 12.1797 4.09345 12.2092 4.22218C12.2387 4.35091 12.2934 4.47253 12.3701 4.58001L14.0901 7.00001H14.0001H6.00012C5.73491 7.00001 5.48055 7.10537 5.29302 7.29291C5.10548 7.48044 5.00012 7.7348 5.00012 8.00001C5.00012 8.26523 5.10548 8.51958 5.29302 8.70712C5.48055 8.89465 5.73491 9.00001 6.00012 9.00001H14.0001L12.2001 11.4C12.1213 11.5051 12.064 11.6246 12.0314 11.7518C11.9988 11.879 11.9916 12.0114 12.0102 12.1414C12.0287 12.2714 12.0727 12.3965 12.1396 12.5095C12.2066 12.6225 12.2951 12.7212 12.4001 12.8C12.5732 12.9298 12.7838 13 13.0001 13C13.1554 13 13.3085 12.9639 13.4473 12.8944C13.5862 12.825 13.707 12.7242 13.8001 12.6L16.8001 8.60001C16.9282 8.43088 16.9992 8.2254 17.0028 8.01328C17.0063 7.80116 16.9424 7.59339 16.8201 7.42001Z" fill="#9732E7"/>
</svg>
