<svg width="30" height="28" viewBox="0 0 30 28" fill="none" xmlns="http://www.w3.org/2000/svg">
<path d="M7.27636 26.2708L7.27638 26.2707M7.27636 26.2708L7.27635 26.2708L7.27638 26.2707M7.27636 26.2708C7.27637 26.2708 7.27637 26.2707 7.27638 26.2707M7.27636 26.2708L7.27638 26.2707M21.4554 18.3047L22.8437 26.1211L15.7466 22.4056L15.0509 22.0413L14.3552 22.4056L7.30755 26.0952L8.68879 18.3188L8.82803 17.5349L8.25678 16.9803L2.60074 11.489L10.4506 10.3459L11.234 10.2319L11.5819 9.52081L15.0514 2.4297L18.5659 9.51407L18.9154 10.2185L19.6935 10.3318L27.5434 11.4749L21.8874 16.9661L21.3161 17.5208L21.4554 18.3047Z" stroke="#A83AFF" stroke-width="3"/>
</svg>
