<svg width="30" height="28" viewBox="0 0 30 28" fill="none" xmlns="http://www.w3.org/2000/svg">
<path d="M22.8022 27.2034C22.5764 27.2043 22.3536 27.151 22.1525 27.048L14.9491 23.2768L7.74575 27.048C7.51185 27.171 7.24812 27.2259 6.98456 27.2065C6.721 27.1871 6.46818 27.0941 6.25483 26.9381C6.04149 26.7822 5.87618 26.5695 5.7777 26.3242C5.67921 26.079 5.65151 25.811 5.69773 25.5508L7.11016 17.5989L1.29095 11.9491C1.1094 11.768 0.980601 11.5408 0.918392 11.2919C0.856184 11.0431 0.862908 10.782 0.937845 10.5367C1.01971 10.2857 1.1703 10.0626 1.37252 9.89286C1.57474 9.7231 1.8205 9.61341 2.08191 9.57626L10.1328 8.40394L13.678 1.15818C13.7936 0.919377 13.9742 0.717983 14.199 0.577067C14.4238 0.436151 14.6838 0.361412 14.9491 0.361412C15.2145 0.361412 15.4744 0.436151 15.6993 0.577067C15.9241 0.717983 16.1047 0.919377 16.2203 1.15818L19.8079 8.38982L27.8587 9.56213C28.1202 9.59929 28.3659 9.70897 28.5681 9.87874C28.7704 10.0485 28.921 10.2716 29.0028 10.5226C29.0778 10.7679 29.0845 11.029 29.0223 11.2778C28.9601 11.5266 28.8313 11.7538 28.6497 11.935L22.8305 17.5847L24.2429 25.5367C24.2934 25.8015 24.267 26.0752 24.1668 26.3255C24.0667 26.5758 23.8971 26.7922 23.678 26.9491C23.4222 27.1284 23.1142 27.2178 22.8022 27.2034Z" fill="#A83AFF"/>
</svg>
