<svg width="29" height="30" viewBox="0 0 29 30" fill="none" xmlns="http://www.w3.org/2000/svg">
<path d="M15.3847 12.4289C14.5564 11.3156 13.438 10.4504 12.1512 9.92737C12.0136 9.86826 11.8964 9.77022 11.8141 9.64536C11.7317 9.52051 11.6879 9.37431 11.6879 9.22484C11.6869 9.11803 11.708 9.01215 11.7497 8.91379C11.7914 8.81542 11.853 8.72666 11.9305 8.653C11.9779 8.60795 12.0232 8.5636 12.0572 8.52789C12.2972 8.27575 12.5089 7.99821 12.6887 7.70022C13.1615 6.91293 13.3959 6.0059 13.3636 5.08858C13.3314 4.17127 13.0338 3.28288 12.5068 2.53062C11.9798 1.77836 11.2459 1.19439 10.3937 0.849164C9.54154 0.503944 8.60745 0.412233 7.70419 0.585098C6.7837 0.74587 5.93298 1.17934 5.26266 1.82912C4.59234 2.47891 4.13344 3.31496 3.94563 4.22854C3.77215 5.01519 3.80173 5.83294 4.03158 6.60506C4.26144 7.37719 4.68404 8.0784 5.25975 8.64292C5.33789 8.71681 5.40043 8.80554 5.44372 8.90389C5.48701 9.00224 5.51016 9.10824 5.51183 9.21565V9.21961C5.51321 9.37032 5.46998 9.51809 5.38756 9.64437C5.30513 9.77066 5.18718 9.86986 5.0485 9.92952C3.14997 10.7144 1.63598 12.2116 0.832204 14.0991C0.267209 15.3918 -0.0162084 16.7895 0.000715666 18.1997V19.2162C0.000709231 19.4341 0.0436984 19.6498 0.127229 19.8511C0.210759 20.0523 0.333194 20.2352 0.487543 20.3893C0.641893 20.5433 0.825134 20.6655 1.0268 20.7489C1.22847 20.8322 1.44462 20.8751 1.66291 20.8751H10.5195C10.5231 19.1663 10.9739 17.4881 11.8273 16.0067C12.6806 14.5252 13.9069 13.2919 15.3847 12.4289Z" fill="#9732E7"/>
<path d="M26.4862 14.8782C25.286 13.6803 23.7567 12.8645 22.0919 12.534C20.4271 12.2035 18.7014 12.3732 17.1332 13.0214C15.5649 13.6697 14.2245 14.7676 13.2815 16.1761C12.3384 17.5847 11.8351 19.2407 11.8351 20.9347C11.8351 22.6288 12.3384 24.2848 13.2815 25.6933C14.2245 27.1019 15.5649 28.1997 17.1332 28.848C18.7014 29.4963 20.4271 29.6659 22.0919 29.3354C23.7567 29.0049 25.286 28.1891 26.4862 26.9913C27.2832 26.1959 27.9154 25.2517 28.3467 24.2125C28.778 23.1733 29 22.0595 29 20.9347C29 19.8099 28.778 18.6961 28.3467 17.6569C27.9154 16.6177 27.2832 15.6735 26.4862 14.8782ZM16.7787 18.1179C16.7787 17.9233 16.8561 17.7367 16.994 17.5992C17.1318 17.4616 17.3188 17.3843 17.5137 17.3843C17.7087 17.3843 17.8956 17.4616 18.0335 17.5992C18.1713 17.7367 18.2488 17.9233 18.2488 18.1179V18.649C18.2488 18.8435 18.1713 19.0301 18.0335 19.1677C17.8956 19.3052 17.7087 19.3825 17.5137 19.3825C17.3188 19.3825 17.1318 19.3052 16.994 19.1677C16.8561 19.0301 16.7787 18.8435 16.7787 18.649V18.1179ZM20.4872 25.8999C19.5041 25.8988 18.5615 25.5087 17.8663 24.8149C17.1711 24.1212 16.7801 23.1806 16.7789 22.1995C16.7789 22.005 16.8563 21.8184 16.9942 21.6808C17.132 21.5432 17.319 21.4659 17.5139 21.4659C17.7089 21.4659 17.8958 21.5432 18.0337 21.6808C18.1715 21.8184 18.249 22.005 18.249 22.1995C18.249 22.7919 18.4848 23.36 18.9044 23.7788C19.3241 24.1977 19.8934 24.433 20.4869 24.433C21.0804 24.433 21.6497 24.1977 22.0694 23.7788C22.4891 23.36 22.7248 22.7919 22.7248 22.1995C22.7248 22.005 22.8023 21.8184 22.9401 21.6808C23.078 21.5432 23.2649 21.4659 23.4599 21.4659C23.6548 21.4659 23.8418 21.5432 23.9796 21.6808C24.1175 21.8184 24.1949 22.005 24.1949 22.1995C24.1938 23.1806 23.8028 24.1211 23.1077 24.8148C22.4126 25.5085 21.4702 25.8987 20.4872 25.8999ZM24.1949 18.6491C24.1949 18.8437 24.1175 19.0302 23.9796 19.1678C23.8418 19.3054 23.6548 19.3827 23.4599 19.3827C23.2649 19.3827 23.078 19.3054 22.9401 19.1678C22.8023 19.0302 22.7248 18.8437 22.7248 18.6491V18.1179C22.7248 17.9233 22.8023 17.7367 22.9401 17.5992C23.078 17.4616 23.2649 17.3843 23.4599 17.3843C23.6548 17.3843 23.8418 17.4616 23.9796 17.5992C24.1175 17.7367 24.1949 17.9233 24.1949 18.1179V18.6491Z" fill="#9732E7"/>
</svg>
