<svg width="25" height="30" viewBox="0 0 25 30" fill="none" xmlns="http://www.w3.org/2000/svg">
<path d="M24.6603 4.19866C24.61 3.81186 24.3502 3.49368 23.9991 3.38911L12.7452 0.0358826C12.5848 -0.0119609 12.4153 -0.0119609 12.2548 0.0358826L1.00089 3.38911C0.649753 3.49368 0.390001 3.81172 0.339734 4.19866C0.274461 4.70153 -1.21463 16.5834 2.60478 22.4943C6.41968 28.3982 12.0475 29.9111 12.2851 29.9727C12.3558 29.991 12.4278 30 12.5 30C12.5722 30 12.6442 29.9908 12.7149 29.9727C12.9526 29.9111 18.5804 28.3982 22.3952 22.4943C26.2146 16.5836 24.7255 4.70166 24.6603 4.19866ZM19.7573 11.1354L12.081 19.3599C11.9024 19.5513 11.6682 19.6471 11.434 19.6471C11.1999 19.6471 10.9656 19.5514 10.787 19.3599L6.04085 14.2748C5.86919 14.091 5.77281 13.8416 5.77281 13.5816C5.77281 13.3216 5.86931 13.0722 6.04085 12.8884L6.98323 11.8787C7.34059 11.496 7.92 11.4958 8.27723 11.8787L11.434 15.261L17.5209 8.73921C17.6925 8.55528 17.9253 8.45202 18.1679 8.45202C18.4106 8.45202 18.6434 8.55528 18.8149 8.73921L19.7573 9.74889C20.1147 10.1318 20.1147 10.7526 19.7573 11.1354Z" fill="#9732E7"/>
</svg>
