<svg width="35" height="38" viewBox="0 0 35 38" fill="none" xmlns="http://www.w3.org/2000/svg">
<path d="M17.5 3.58334C13.5624 3.66439 9.81587 5.39292 7.08205 8.38988C4.34824 11.3868 2.85028 15.4076 2.91667 19.5704V26.7083C2.91667 27.928 3.25879 29.1203 3.89976 30.1344C4.54074 31.1485 5.45178 31.9389 6.51768 32.4056C7.58358 32.8723 8.75647 32.9945 9.88803 32.7565C11.0196 32.5186 12.059 31.9313 12.8748 31.0688C13.6906 30.2064 14.2462 29.1076 14.4712 27.9114C14.6963 26.7152 14.5808 25.4753 14.1393 24.3485C13.6978 23.2217 12.9501 22.2585 11.9908 21.5809C11.0315 20.9033 9.90372 20.5417 8.75 20.5417C7.72193 20.5462 6.71416 20.8445 5.83333 21.405V19.5704C5.76679 16.2253 6.95742 12.9887 9.14429 10.5699C11.3312 8.15116 14.3359 6.74754 17.5 6.66668C20.6641 6.74754 23.6688 8.15116 25.8557 10.5699C28.0426 12.9887 29.2332 16.2253 29.1667 19.5704V21.405C28.2858 20.8445 27.2781 20.5462 26.25 20.5417C25.0963 20.5417 23.9685 20.9033 23.0092 21.5809C22.0499 22.2585 21.3022 23.2217 20.8607 24.3485C20.4192 25.4753 20.3037 26.7152 20.5288 27.9114C20.7538 29.1076 21.3094 30.2064 22.1252 31.0688C22.941 31.9313 23.9804 32.5186 25.112 32.7565C26.2435 32.9945 27.4164 32.8723 28.4823 32.4056C29.5482 31.9389 30.4593 31.1485 31.1002 30.1344C31.7412 29.1203 32.0833 27.928 32.0833 26.7083V19.5704C32.1497 15.4076 30.6518 11.3868 27.9179 8.38988C25.1841 5.39292 21.4376 3.66439 17.5 3.58334Z" fill="#9732E7"/>
</svg>
