<svg width="37" height="38" viewBox="0 0 37 38" fill="none" xmlns="http://www.w3.org/2000/svg">
<g clip-path="url(#clip0_48_426)">
<path d="M18.5 3.96875C15.5271 3.96875 12.621 4.85032 10.1491 6.50197C7.67722 8.15363 5.75062 10.5012 4.61294 13.2478C3.47526 15.9944 3.17759 19.0167 3.75758 21.9325C4.33756 24.8482 5.76915 27.5265 7.87131 29.6287C9.97347 31.7309 12.6518 33.1624 15.5676 33.7424C18.4833 34.3224 21.5056 34.0247 24.2522 32.8871C26.9988 31.7494 29.3464 29.8228 30.998 27.3509C32.6497 24.879 33.5313 21.9729 33.5313 19C33.5236 15.0158 31.9375 11.197 29.1203 8.37974C26.303 5.56249 22.4842 3.97639 18.5 3.96875ZM18.5 28.25C18.157 28.25 17.8217 28.1483 17.5364 27.9577C17.2512 27.7671 17.0289 27.4963 16.8977 27.1793C16.7664 26.8624 16.732 26.5137 16.799 26.1773C16.8659 25.8408 17.0311 25.5318 17.2736 25.2892C17.5162 25.0467 17.8252 24.8815 18.1616 24.8146C18.4981 24.7477 18.8468 24.782 19.1637 24.9133C19.4806 25.0445 19.7515 25.2668 19.9421 25.5521C20.1327 25.8373 20.2344 26.1726 20.2344 26.5156C20.2344 26.9756 20.0517 27.4168 19.7264 27.742C19.4011 28.0673 18.96 28.25 18.5 28.25ZM19.6563 21.1824V21.3125C19.6563 21.6192 19.5344 21.9133 19.3176 22.1301C19.1008 22.3469 18.8067 22.4688 18.5 22.4688C18.1933 22.4688 17.8993 22.3469 17.6824 22.1301C17.4656 21.9133 17.3438 21.6192 17.3438 21.3125V20.1562C17.3438 19.8496 17.4656 19.5555 17.6824 19.3387C17.8993 19.1218 18.1933 19 18.5 19C19.0717 19 19.6306 18.8305 20.106 18.5128C20.5813 18.1952 20.9518 17.7438 21.1706 17.2156C21.3894 16.6874 21.4466 16.1062 21.3351 15.5454C21.2236 14.9847 20.9482 14.4697 20.544 14.0654C20.1397 13.6611 19.6247 13.3858 19.0639 13.2743C18.5032 13.1628 17.922 13.22 17.3938 13.4388C16.8656 13.6576 16.4142 14.0281 16.0965 14.5034C15.7789 14.9788 15.6094 15.5377 15.6094 16.1094C15.6094 16.416 15.4876 16.7101 15.2707 16.927C15.0539 17.1438 14.7598 17.2656 14.4531 17.2656C14.1465 17.2656 13.8524 17.1438 13.6355 16.927C13.4187 16.7101 13.2969 16.416 13.2969 16.1094C13.2969 15.1299 13.5734 14.1703 14.0945 13.341C14.6157 12.5117 15.3603 11.8463 16.2428 11.4214C17.1253 10.9965 18.1099 10.8293 19.0832 10.9391C20.0565 11.0488 20.979 11.4311 21.7447 12.0419C22.5104 12.6527 23.0882 13.4673 23.4115 14.3919C23.7348 15.3164 23.7906 16.3135 23.5724 17.2684C23.3542 18.2232 22.871 19.0971 22.1782 19.7895C21.4854 20.482 20.6112 20.9648 19.6563 21.1824Z" fill="#9732E7"/>
</g>
<defs>
<clipPath id="clip0_48_426">
<rect width="37" height="37" fill="white" transform="translate(0 0.5)"/>
</clipPath>
</defs>
</svg>
